<svg xmlns="http://www.w3.org/2000/svg" xmlns:xlink="http://www.w3.org/1999/xlink" width="100" zoomAndPan="magnify" viewBox="0 0 75 74.999997" height="100" preserveAspectRatio="xMidYMid meet" version="1.0"><defs><clipPath id="05b50fba40"><path d="M 15 20.277344 L 50 20.277344 L 50 54.777344 L 15 54.777344 Z M 15 20.277344 " clip-rule="nonzero"/></clipPath><clipPath id="fdd6e77ea1"><path d="M 42 37 L 60 37 L 60 54.777344 L 42 54.777344 Z M 42 37 " clip-rule="nonzero"/></clipPath></defs><g clip-path="url(#05b50fba40)"><path fill="#ffffff" d="M 32.5 29.449219 C 32.554688 29.929688 32.644531 30.398438 32.777344 30.859375 C 32.910156 31.320312 33.078125 31.769531 33.285156 32.203125 C 33.492188 32.636719 33.734375 33.046875 34.015625 33.441406 C 34.292969 33.832031 34.601562 34.199219 34.941406 34.539062 C 35.28125 34.878906 35.644531 35.1875 36.039062 35.464844 C 36.429688 35.742188 36.84375 35.984375 37.273438 36.191406 C 37.707031 36.398438 38.15625 36.570312 38.617188 36.699219 C 39.078125 36.832031 39.550781 36.925781 40.027344 36.976562 C 43.066406 37.28125 46.113281 37.417969 49.167969 37.394531 C 46.113281 37.367188 43.066406 37.507812 40.027344 37.808594 C 39.550781 37.863281 39.078125 37.953125 38.617188 38.085938 C 38.15625 38.21875 37.707031 38.386719 37.273438 38.59375 C 36.84375 38.800781 36.429688 39.046875 36.039062 39.324219 C 35.644531 39.601562 35.28125 39.910156 34.941406 40.25 C 34.601562 40.589844 34.292969 40.953125 34.015625 41.347656 C 33.738281 41.738281 33.492188 42.152344 33.285156 42.585938 C 33.078125 43.015625 32.910156 43.464844 32.777344 43.925781 C 32.644531 44.386719 32.554688 44.859375 32.5 45.335938 C 32.199219 48.375 32.058594 51.421875 32.085938 54.476562 C 32.109375 51.421875 31.96875 48.375 31.667969 45.335938 C 31.617188 44.859375 31.523438 44.386719 31.390625 43.925781 C 31.261719 43.464844 31.089844 43.015625 30.882812 42.582031 C 30.675781 42.152344 30.433594 41.738281 30.15625 41.347656 C 29.875 40.953125 29.566406 40.589844 29.230469 40.25 C 28.890625 39.910156 28.523438 39.601562 28.132812 39.324219 C 27.738281 39.046875 27.328125 38.800781 26.894531 38.59375 C 26.460938 38.386719 26.011719 38.21875 25.550781 38.085938 C 25.089844 37.953125 24.621094 37.863281 24.140625 37.808594 C 21.101562 37.507812 18.054688 37.367188 15 37.394531 C 18.054688 37.417969 21.101562 37.277344 24.140625 36.976562 C 24.621094 36.925781 25.089844 36.832031 25.550781 36.699219 C 26.011719 36.570312 26.460938 36.398438 26.894531 36.191406 C 27.328125 35.984375 27.738281 35.742188 28.132812 35.464844 C 28.523438 35.1875 28.890625 34.878906 29.230469 34.539062 C 29.566406 34.199219 29.875 33.832031 30.15625 33.441406 C 30.433594 33.046875 30.675781 32.636719 30.882812 32.203125 C 31.089844 31.769531 31.261719 31.320312 31.390625 30.859375 C 31.523438 30.398438 31.617188 29.929688 31.667969 29.449219 C 31.96875 26.410156 32.109375 23.363281 32.085938 20.308594 C 32.058594 23.363281 32.199219 26.410156 32.5 29.449219 Z M 32.5 29.449219 " fill-opacity="1" fill-rule="nonzero"/></g><g clip-path="url(#fdd6e77ea1)"><path fill="#ffffff" d="M 51.574219 42.019531 C 51.628906 42.507812 51.761719 42.96875 51.972656 43.410156 C 52.183594 43.851562 52.460938 44.246094 52.808594 44.59375 C 53.15625 44.941406 53.550781 45.21875 53.992188 45.429688 C 54.433594 45.640625 54.894531 45.773438 55.382812 45.828125 C 56.921875 45.980469 58.464844 46.050781 60.007812 46.039062 C 58.464844 46.027344 56.921875 46.097656 55.382812 46.25 C 54.894531 46.300781 54.433594 46.433594 53.992188 46.648438 C 53.550781 46.859375 53.15625 47.136719 52.808594 47.484375 C 52.460938 47.828125 52.183594 48.222656 51.972656 48.664062 C 51.761719 49.105469 51.628906 49.570312 51.574219 50.058594 C 51.421875 51.597656 51.351562 53.136719 51.363281 54.683594 C 51.375 53.136719 51.304688 51.597656 51.152344 50.058594 C 51.101562 49.570312 50.96875 49.105469 50.753906 48.664062 C 50.542969 48.222656 50.265625 47.828125 49.917969 47.484375 C 49.574219 47.136719 49.179688 46.859375 48.738281 46.648438 C 48.296875 46.433594 47.832031 46.300781 47.34375 46.25 C 45.804688 46.097656 44.265625 46.027344 42.71875 46.039062 C 44.265625 46.050781 45.804688 45.980469 47.34375 45.828125 C 47.832031 45.773438 48.296875 45.640625 48.738281 45.429688 C 49.179688 45.21875 49.574219 44.941406 49.917969 44.59375 C 50.265625 44.246094 50.542969 43.851562 50.753906 43.410156 C 50.96875 42.96875 51.101562 42.507812 51.152344 42.019531 C 51.304688 40.480469 51.378906 38.9375 51.363281 37.394531 C 51.351562 38.9375 51.421875 40.480469 51.574219 42.019531 Z M 51.574219 42.019531 " fill-opacity="1" fill-rule="nonzero"/></g><path fill="#ffffff" d="M 45.074219 24.957031 C 45.109375 25.253906 45.1875 25.539062 45.320312 25.808594 C 45.449219 26.078125 45.617188 26.320312 45.828125 26.53125 C 46.039062 26.742188 46.28125 26.910156 46.550781 27.042969 C 46.820312 27.171875 47.105469 27.25 47.402344 27.285156 C 48.339844 27.378906 49.28125 27.421875 50.226562 27.414062 C 49.28125 27.40625 48.339844 27.449219 47.402344 27.542969 C 47.105469 27.574219 46.820312 27.65625 46.550781 27.785156 C 46.28125 27.914062 46.039062 28.082031 45.828125 28.292969 C 45.617188 28.507812 45.449219 28.746094 45.320312 29.015625 C 45.1875 29.285156 45.109375 29.570312 45.074219 29.867188 C 44.980469 30.804688 44.941406 31.746094 44.949219 32.691406 C 44.953125 31.746094 44.910156 30.804688 44.820312 29.867188 C 44.785156 29.570312 44.707031 29.285156 44.574219 29.015625 C 44.445312 28.746094 44.277344 28.507812 44.066406 28.292969 C 43.851562 28.082031 43.613281 27.914062 43.34375 27.785156 C 43.074219 27.65625 42.789062 27.574219 42.492188 27.542969 C 41.554688 27.449219 40.613281 27.40625 39.667969 27.414062 C 40.613281 27.421875 41.554688 27.378906 42.492188 27.285156 C 42.789062 27.25 43.074219 27.171875 43.34375 27.042969 C 43.613281 26.910156 43.851562 26.742188 44.0625 26.53125 C 44.277344 26.320312 44.445312 26.078125 44.574219 25.808594 C 44.703125 25.539062 44.785156 25.253906 44.816406 24.957031 C 44.910156 24.019531 44.953125 23.078125 44.949219 22.132812 C 44.941406 23.078125 44.980469 24.019531 45.074219 24.957031 Z M 45.074219 24.957031 " fill-opacity="1" fill-rule="nonzero"/></svg>